<?xml version="1.0" standalone="no"?>
<!DOCTYPE svg PUBLIC "-//W3C//DTD SVG 20010904//EN"
 "http://www.w3.org/TR/2001/REC-SVG-20010904/DTD/svg10.dtd">
<svg version="1.0" xmlns="http://www.w3.org/2000/svg"
 width="188.000000pt" height="188.000000pt" viewBox="0 0 188.000000 188.000000"
 preserveAspectRatio="xMidYMid meet">
<metadata>
Created by potrace 1.11, written by Peter Selinger 2001-2013
</metadata>
<g transform="translate(0.000000,188.000000) scale(0.100000,-0.100000)"
fill="#000000" stroke="none">
<path d="M1231 1578 c-10 -28 -5 -45 23 -77 12 -13 16 -21 10 -18 -6 4 -32
-20 -58 -53 -43 -56 -68 -72 -80 -51 -13 21 -102 52 -165 57 -77 7 -160 -12
-205 -47 -14 -11 -33 -19 -40 -16 -8 3 -25 40 -37 81 -22 73 -39 98 -39 57 0
-27 -98 -147 -117 -143 -8 2 -17 -6 -20 -17 -5 -18 -11 -20 -42 -15 -41 7 -58
-6 -65 -47 -10 -67 64 -116 122 -80 19 12 23 21 20 47 -3 22 0 30 7 24 6 -5
22 6 42 30 28 33 31 42 23 69 -10 36 -4 42 9 9 l9 -23 10 25 c10 24 11 24 12
-10 1 -19 3 -44 5 -54 2 -11 -7 -40 -20 -65 -31 -62 -65 -175 -71 -239 -3 -28
-7 -59 -8 -68 -10 -66 40 -212 92 -271 13 -15 18 -32 14 -49 -4 -22 -8 -25
-31 -19 -42 10 -102 5 -133 -11 -19 -10 -34 -12 -46 -5 -45 24 -130 -5 -183
-64 -17 -18 -36 -32 -42 -30 -7 2 -32 6 -57 9 -25 3 -59 9 -77 15 l-31 9 -12
-66 c-16 -94 -17 -97 -34 -82 -13 10 -14 -17 -13 -189 l2 -200 938 -1 939 0
-7 62 c-7 59 -8 79 -4 111 1 6 -2 33 -6 58 -4 31 -3 49 4 53 13 9 15 116 2
116 -6 0 -13 -4 -16 -10 -13 -21 -21 -8 -34 53 -21 102 -18 97 -54 86 -18 -5
-48 -12 -67 -15 -19 -3 -43 -7 -52 -10 -11 -3 -27 7 -45 26 -54 61 -126 90
-179 70 -17 -7 -35 -4 -64 9 -31 14 -51 16 -83 10 -57 -11 -55 -11 -62 11 -4
12 1 33 14 53 31 50 40 104 41 252 1 126 0 132 -12 180 -6 22 -11 45 -12 50
-1 6 -13 41 -26 80 l-23 69 67 63 c38 35 73 60 81 57 22 -9 55 15 55 39 0 81
-145 170 -169 105z m94 -88 c9 0 13 -4 10 -10 -3 -5 -11 -10 -16 -10 -13 0
-59 46 -59 59 0 6 11 -1 25 -14 13 -14 31 -25 40 -25z m-829 -192 c3 -5 8 -24
10 -41 l4 -32 -15 33 c-8 19 -24 36 -35 39 -11 3 -18 9 -15 13 6 10 43 1 51
-12z m168 -196 c3 -5 -1 -9 -9 -9 -8 0 -12 4 -9 9 3 4 7 8 9 8 2 0 6 -4 9 -8z
m26 -42 c0 -5 -5 -10 -11 -10 -5 0 -7 5 -4 10 3 6 8 10 11 10 2 0 4 -4 4 -10z
m-20 -60 c0 -5 -2 -10 -4 -10 -3 0 -8 5 -11 10 -3 6 -1 10 4 10 6 0 11 -4 11
-10z m-5 -49 c3 -5 2 -12 -3 -15 -5 -3 -9 1 -9 9 0 17 3 19 12 6z m70 -30 c-9
-8 -36 -10 -30 -2 2 4 11 8 20 8 8 0 13 -3 10 -6z m-25 -137 c0 -8 -19 -13
-24 -6 -3 5 1 9 9 9 8 0 15 -2 15 -3z m35 -24 c3 -5 1 -10 -4 -10 -6 0 -11 5
-11 10 0 6 2 10 4 10 3 0 8 -4 11 -10z m-140 -210 c19 -7 18 -9 -8 -19 -49
-19 -75 -23 -82 -12 -4 7 7 17 27 26 38 16 37 16 63 5z m734 -16 c8 -7 12 -16
9 -20 -10 -9 -76 15 -81 31 -7 17 52 9 72 -11z m181 -43 c0 -12 -25 -21 -37
-13 -6 4 -14 17 -18 30 -7 23 -7 23 24 7 17 -8 31 -19 31 -24z m-1120 17 c0
-18 -16 -40 -26 -38 -5 1 -15 6 -22 12 -10 8 -8 13 5 24 23 17 43 18 43 2z
m285 -88 c3 -5 1 -10 -4 -10 -6 0 -11 5 -11 10 0 6 2 10 4 10 3 0 8 -4 11 -10z
m560 0 c3 -5 1 -10 -4 -10 -6 0 -11 5 -11 10 0 6 2 10 4 10 3 0 8 -4 11 -10z
m265 -36 c0 -8 -19 -13 -24 -6 -3 5 1 9 9 9 8 0 15 -2 15 -3z m-384 -44 c0
-12 -4 -16 -9 -11 -5 5 -6 14 -3 20 10 15 12 14 12 -9z m-741 1 c-9 -8 -36
-10 -30 -2 2 4 11 8 20 8 8 0 13 -3 10 -6z m1209 1 c3 -5 -1 -9 -9 -9 -8 0
-12 4 -9 9 3 4 7 8 9 8 2 0 6 -4 9 -8z m-1414 -58 c0 -8 -19 -13 -24 -6 -3 5
1 9 9 9 8 0 15 -2 15 -3z m225 -3 c3 -5 2 -12 -3 -15 -5 -3 -9 1 -9 9 0 17 3
19 12 6z m1230 -81 c3 -6 -1 -7 -9 -4 -18 7 -21 14 -7 14 6 0 13 -4 16 -10z
m-1225 -160 c0 -5 -5 -10 -11 -10 -5 0 -7 5 -4 10 3 6 8 10 11 10 2 0 4 -4 4
-10z"/>
</g>
</svg>
